<?xml version="1.0" encoding="utf-8"?>
<!-- Generator: Adobe Illustrator 25.4.0, SVG Export Plug-In . SVG Version: 6.00 Build 0)  -->
<svg version="1.1" id="Layer_1" xmlns="http://www.w3.org/2000/svg" xmlns:xlink="http://www.w3.org/1999/xlink" x="0px" y="0px"
	 viewBox="0 0 1599 519" style="enable-background:new 0 0 1599 519;" xml:space="preserve">
<style type="text/css">
	.st0{fill-rule:evenodd;clip-rule:evenodd;fill:#FFFFFF;}
</style>
<path id="path3789" class="st0" d="M1041.9,0.8c72.7,0,124.2,22.2,124.2,22.2L1143.2,129c0,0-47.4-24-105.4-24
	c-51.5,0-76.3,22.6-76.3,43.3c0,58.1,180.6,66.5,180.6,198.2c0,110.5-97.6,172.2-221.7,172.2c-83.7,0-146.8-27.9-146.8-27.9
	l23.4-109.7c0,0,54.7,33,128,33c51.6,0,81.8-23.6,81.8-50c0-62.6-179.9-71.2-179.9-195.9C827,59.6,928.4,0.8,1041.9,0.8z M3.5,8.8
	h216.7c31.3,0,56.8,18.9,61.9,52l55,289.1L472,8.8h135.9L398,510.5H261.8L160.2,118.7c-9.3-36.1-13.3-47.8-68.6-67.8
	C48.5,33.5,0.8,24.8,0.8,24.8L3.5,8.8z M662.5,8.8h129.2L685.5,510.5H555.9L662.5,8.8z M1385.3,8.8h109.2l104.6,501.7h-119.9l-16-76
	h-165.6l-26.3,76h-135.9l189.9-455.7C1337.5,25.5,1354.1,8.8,1385.3,8.8z M1403,144.3l-67.6,188.2h107.9L1403,144.3z"/>
</svg>
